<?xml version="1.0" encoding="UTF-8" standalone="no"?>
<!-- Created with Inkscape (http://www.inkscape.org/) -->

<svg
   xmlns:dc="http://purl.org/dc/elements/1.1/"
   xmlns:cc="http://creativecommons.org/ns#"
   xmlns:rdf="http://www.w3.org/1999/02/22-rdf-syntax-ns#"
   xmlns:svg="http://www.w3.org/2000/svg"
   xmlns="http://www.w3.org/2000/svg"
   xmlns:sodipodi="http://sodipodi.sourceforge.net/DTD/sodipodi-0.dtd"
   xmlns:inkscape="http://www.inkscape.org/namespaces/inkscape"
   width="210mm"
   height="297mm"
   viewBox="0 0 744.09448819 1052.3622047"
   id="svg2"
   version="1.1"
   inkscape:version="0.91 r13725"
   sodipodi:docname="ATTN_manager.svg">
  <defs
     id="defs4" />
  <sodipodi:namedview
     id="base"
     pagecolor="#ffffff"
     bordercolor="#666666"
     borderopacity="1.0"
     inkscape:pageopacity="0.0"
     inkscape:pageshadow="2"
     inkscape:zoom="0.49497475"
     inkscape:cx="568.38299"
     inkscape:cy="462.15462"
     inkscape:document-units="px"
     inkscape:current-layer="layer1"
     showgrid="false"
     inkscape:window-width="1366"
     inkscape:window-height="705"
     inkscape:window-x="-8"
     inkscape:window-y="-8"
     inkscape:window-maximized="1" />
  <metadata
     id="metadata7">
    <rdf:RDF>
      <cc:Work
         rdf:about="">
        <dc:format>image/svg+xml</dc:format>
        <dc:type
           rdf:resource="http://purl.org/dc/dcmitype/StillImage" />
        <dc:title></dc:title>
      </cc:Work>
    </rdf:RDF>
  </metadata>
  <g
     inkscape:label="Layer 1"
     inkscape:groupmode="layer"
     id="layer1">
    <path
       sodipodi:type="spiral"
       style="fill:#48ab6c;fill-opacity:1;fill-rule:evenodd;stroke:#6f6d92;stroke-width:1px;stroke-linecap:butt;stroke-linejoin:miter;stroke-opacity:1"
       id="path4182"
       sodipodi:cx="367.69553"
       sodipodi:cy="539.20471"
       sodipodi:expansion="3.6500001"
       sodipodi:revolution="4.0999999"
       sodipodi:radius="314.00638"
       sodipodi:argument="-20.55588"
       sodipodi:t0="0"
       d="m 367.69553,539.20471 c -4.9e-4,-0.004 0.0112,-0.002 0.0114,-0.002 0.059,0.0164 0.0284,0.11406 0.008,0.14528 -0.14927,0.23027 -0.50187,0.0887 -0.65091,-0.0576 -0.56815,-0.55783 -0.13788,-1.48271 0.38529,-1.89025 1.44484,-1.12552 3.4565,-0.0966 4.31981,1.24865 1.95996,3.054 -0.14287,6.90501 -2.99308,8.4807 -5.66748,3.13319 -12.38482,-0.7132 -14.99193,-6.02821 -4.71062,-9.60333 1.77017,-20.52209 10.82283,-24.54531 15.21343,-6.76121 32.00851,3.49089 37.90151,17.9011 9.35738,22.88173 -6.07256,47.5981 -27.83955,55.88687 -33.02282,12.57495 -68.10445,-9.73148 -79.39064,-41.26461 -16.49304,-46.08084 14.7022,-94.39851 58.85061,-109.36269 62.52834,-21.1941 127.40651,21.23674 146.81147,81.31794 26.76377,82.8654 -29.60402,168.10832 -109.43155,192.8022 -107.61892,33.29089 -217.53585,-40.08928 -248.45537,-143.99957 -40.86739,-137.34178 52.99363,-276.77167 185.87216,-314.9452 61.31022,-17.61329 127.56057,-14.28527 187.32187,7.66762"
       transform="matrix(0.52453161,-0.84265407,0.8515513,0.5384553,-256.15138,496.39457)" />
  </g>
</svg>
